# Blender v2.90.1 OBJ File: 'office.blend'
# www.blender.org
g Monitor_Cube.006
v 0.171284 0.135134 0.078791
v 0.171284 0.458564 0.050479
v -0.171831 0.135134 0.078791
v -0.171831 0.458564 0.050480
v -0.000274 0.135811 0.091869
v 0.171284 0.297485 0.076926
v -0.000274 0.459241 0.063557
v -0.171831 0.297485 0.076926
v -0.000274 0.297806 0.083124
v 0.085505 0.135709 0.089896
v 0.171284 0.378245 0.067967
v -0.086052 0.459139 0.061585
v -0.171831 0.216530 0.082122
v -0.086052 0.135709 0.089896
v 0.171284 0.216530 0.082122
v 0.085505 0.459139 0.061585
v -0.171831 0.378245 0.067967
v -0.000274 0.378602 0.074853
v -0.000274 0.216887 0.089008
v -0.086052 0.297737 0.081786
v 0.085505 0.297737 0.081786
v 0.085505 0.216812 0.087570
v -0.086052 0.216812 0.087570
v -0.086052 0.378527 0.073414
v 0.085505 0.378527 0.073414
v 0.128394 0.135547 0.086773
v 0.171284 0.418519 0.061433
v -0.128942 0.458977 0.058462
v -0.171831 0.175947 0.082667
v -0.043163 0.135787 0.091404
v 0.171284 0.257034 0.080022
v 0.042616 0.459217 0.063093
v -0.171831 0.337891 0.072945
v -0.000274 0.418947 0.069695
v -0.000274 0.257362 0.086372
v -0.128942 0.297642 0.079949
v 0.042616 0.297789 0.082799
v 0.042616 0.135787 0.091404
v 0.171284 0.337891 0.072945
v -0.043163 0.459217 0.063093
v -0.171831 0.257034 0.080022
v -0.128942 0.135547 0.086773
v 0.171284 0.175947 0.082667
v 0.128394 0.458977 0.058461
v -0.171831 0.418519 0.061433
v -0.000274 0.338220 0.079294
v -0.000274 0.176374 0.090928
v -0.043163 0.297789 0.082799
v 0.128394 0.297642 0.079949
v 0.085505 0.257292 0.085011
v 0.085505 0.176291 0.089325
v 0.042616 0.216869 0.088660
v 0.128394 0.216708 0.085563
v -0.086052 0.257292 0.085011
v -0.086052 0.176291 0.089325
v -0.128942 0.216708 0.085563
v -0.043163 0.216869 0.088660
v -0.086052 0.418864 0.068092
v -0.086052 0.338149 0.077933
v -0.128942 0.378423 0.071408
v -0.043163 0.378584 0.074505
v 0.085505 0.418864 0.068092
v 0.085505 0.338149 0.077933
v 0.042616 0.378584 0.074505
v 0.128394 0.378423 0.071408
v 0.128394 0.338052 0.076058
v 0.042616 0.338203 0.078964
v 0.042616 0.418927 0.069310
v -0.043163 0.338203 0.078964
v -0.128942 0.338052 0.076058
v -0.128942 0.418744 0.065785
v -0.043163 0.176354 0.090543
v -0.128942 0.176172 0.087018
v -0.128942 0.257195 0.083136
v 0.128394 0.176172 0.087018
v 0.042616 0.176354 0.090543
v 0.042616 0.257345 0.086041
v 0.128394 0.257195 0.083136
v -0.043163 0.257345 0.086041
v -0.043163 0.418927 0.069310
v 0.128394 0.418744 0.065785
vn 0.1006 0.1658 0.9810
vn 0.0821 0.1787 0.9805
vn 0.0767 0.1584 0.9844
vn -0.0185 0.1402 0.9899
vn 0.0000 0.1515 0.9885
vn -0.0212 0.1542 0.9878
vn -0.0160 0.0721 0.9973
vn 0.0000 0.0872 0.9962
vn -0.0157 0.0871 0.9961
vn 0.0719 0.0644 0.9953
vn 0.0570 0.0867 0.9946
vn 0.0590 0.0682 0.9959
vn 0.0342 0.0709 0.9969
vn 0.0157 0.0871 0.9961
vn 0.0160 0.0721 0.9973
vn 0.0186 0.0337 0.9993
vn 0.0363 0.0537 0.9979
vn 0.0168 0.0557 0.9983
vn 0.0771 0.0146 0.9969
vn 0.0836 0.0398 0.9957
vn 0.0639 0.0490 0.9967
vn -0.0590 0.0682 0.9959
vn -0.0334 0.0870 0.9957
vn -0.0570 0.0867 0.9946
vn -0.0411 0.0286 0.9987
vn -0.0639 0.0490 0.9967
vn -0.0771 0.0146 0.9969
vn -0.0000 0.0350 0.9994
vn -0.0168 0.0557 0.9983
vn -0.0186 0.0337 0.9993
vn -0.0767 0.1584 0.9844
vn -0.0488 0.1641 0.9852
vn -0.0821 0.1787 0.9805
vn -0.0582 0.1048 0.9928
vn -0.0360 0.1209 0.9920
vn -0.0632 0.1261 0.9900
vn -0.0159 0.1021 0.9946
vn 0.0000 0.1182 0.9930
vn -0.0167 0.1188 0.9928
vn 0.0409 0.1451 0.9886
vn 0.0212 0.1542 0.9878
vn 0.0185 0.1402 0.9899
vn 0.0339 0.1029 0.9941
vn 0.0167 0.1188 0.9928
vn 0.0159 0.1021 0.9946
vn 0.0743 0.1080 0.9914
vn 0.0632 0.1261 0.9900
vn 0.0582 0.1048 0.9928
vn 0.0360 0.1209 0.9920
vn 0.0334 0.0870 0.9957
vn 0.0709 0.0865 0.9937
vn 0.0000 0.1019 0.9948
vn 0.0000 0.1389 0.9903
vn -0.0339 0.1029 0.9941
vn -0.0743 0.1080 0.9914
vn -0.0852 0.1355 0.9871
vn -0.0709 0.0865 0.9937
vn -0.1006 0.1658 0.9810
vn -0.1791 0.2596 0.9490
vn -0.0409 0.1451 0.9886
vn -0.0363 0.0537 0.9979
vn -0.0213 0.0195 0.9996
vn -0.0490 0.0092 0.9988
vn -0.0000 0.0222 0.9998
vn -0.0836 0.0398 0.9957
vn -0.1012 0.0067 0.9948
vn -0.0826 -0.0063 0.9966
vn -0.1813 -0.0930 0.9790
vn -0.0719 0.0644 0.9953
vn -0.0342 0.0709 0.9969
vn 0.0411 0.0286 0.9987
vn 0.0490 0.0092 0.9988
vn 0.0826 -0.0063 0.9966
vn 0.1012 0.0067 0.9948
vn 0.0000 0.0562 0.9984
vn 0.0213 0.0195 0.9996
vn 0.0000 0.0724 0.9974
vn 0.0488 0.1641 0.9852
vn 0.0852 0.1355 0.9871
vn 0.1791 0.2596 0.9490
vn 0.1813 -0.0930 0.9790
s 1
f 27//1 44//2 81//3
f 80//4 7//5 40//6
f 79//7 9//8 48//9
f 31//10 49//11 78//12
f 50//13 37//14 77//15
f 76//16 22//17 52//18
f 75//19 15//20 53//21
f 74//22 20//23 36//24
f 55//25 56//26 73//27
f 47//28 57//29 72//30
f 71//31 12//32 28//33
f 70//34 24//35 60//36
f 69//37 18//38 61//39
f 62//40 32//41 68//42
f 63//43 64//44 67//45
f 39//46 65//47 66//48
f 66//48 25//49 63//43
f 49//11 63//43 21//50
f 6//51 66//48 49//11
f 67//45 18//38 46//52
f 37//14 46//52 9//8
f 21//50 67//45 37//14
f 68//42 7//5 34//53
f 64//44 34//53 18//38
f 25//49 68//42 64//44
f 59//54 61//39 24//35
f 20//23 69//37 59//54
f 48//9 46//52 69//37
f 33//55 60//36 17//56
f 8//57 70//34 33//55
f 36//24 59//54 70//34
f 45//58 28//33 4//59
f 17//56 71//31 45//58
f 60//36 58//60 71//31
f 72//30 23//61 55//25
f 30//62 55//25 14//63
f 5//64 72//30 30//62
f 73//27 13//65 29//66
f 42//67 29//66 3//68
f 14//63 73//27 42//67
f 41//69 36//24 8//57
f 13//65 74//22 41//69
f 56//26 54//70 74//22
f 51//71 53//21 22//17
f 10//72 75//19 51//71
f 26//73 43//74 75//19
f 47//28 52//18 19//75
f 5//64 76//16 47//28
f 38//76 51//71 76//16
f 77//15 9//8 35//77
f 52//18 35//77 19//75
f 22//17 77//15 52//18
f 78//12 21//50 50//13
f 53//21 50//13 22//17
f 15//20 78//12 53//21
f 54//70 48//9 20//23
f 23//61 79//7 54//70
f 57//29 35//77 79//7
f 58//60 40//6 12//32
f 24//35 80//4 58//60
f 61//39 34//53 80//4
f 81//3 16//78 62//40
f 65//47 62//40 25//49
f 11//79 81//3 65//47
f 27//1 2//80 44//2
f 80//4 34//53 7//5
f 79//7 35//77 9//8
f 31//10 6//51 49//11
f 50//13 21//50 37//14
f 76//16 51//71 22//17
f 75//19 43//74 15//20
f 74//22 54//70 20//23
f 55//25 23//61 56//26
f 47//28 19//75 57//29
f 71//31 58//60 12//32
f 70//34 59//54 24//35
f 69//37 46//52 18//38
f 62//40 16//78 32//41
f 63//43 25//49 64//44
f 39//46 11//79 65//47
f 66//48 65//47 25//49
f 49//11 66//48 63//43
f 6//51 39//46 66//48
f 67//45 64//44 18//38
f 37//14 67//45 46//52
f 21//50 63//43 67//45
f 68//42 32//41 7//5
f 64//44 68//42 34//53
f 25//49 62//40 68//42
f 59//54 69//37 61//39
f 20//23 48//9 69//37
f 48//9 9//8 46//52
f 33//55 70//34 60//36
f 8//57 36//24 70//34
f 36//24 20//23 59//54
f 45//58 71//31 28//33
f 17//56 60//36 71//31
f 60//36 24//35 58//60
f 72//30 57//29 23//61
f 30//62 72//30 55//25
f 5//64 47//28 72//30
f 73//27 56//26 13//65
f 42//67 73//27 29//66
f 14//63 55//25 73//27
f 41//69 74//22 36//24
f 13//65 56//26 74//22
f 56//26 23//61 54//70
f 51//71 75//19 53//21
f 10//72 26//73 75//19
f 26//73 1//81 43//74
f 47//28 76//16 52//18
f 5//64 38//76 76//16
f 38//76 10//72 51//71
f 77//15 37//14 9//8
f 52//18 77//15 35//77
f 22//17 50//13 77//15
f 78//12 49//11 21//50
f 53//21 78//12 50//13
f 15//20 31//10 78//12
f 54//70 79//7 48//9
f 23//61 57//29 79//7
f 57//29 19//75 35//77
f 58//60 80//4 40//6
f 24//35 61//39 80//4
f 61//39 18//38 34//53
f 81//3 44//2 16//78
f 65//47 81//3 62//40
f 11//79 27//1 81//3
g Corpus_Cube.002
v 0.153004 -0.000189 0.028273
v 0.153004 0.025479 0.028273
v -0.153551 -0.000189 0.028273
v -0.153551 0.025479 0.028273
v 0.153004 -0.000189 -0.293938
v 0.153004 0.025479 -0.293938
v -0.153551 -0.000189 -0.293938
v -0.153551 0.025479 -0.293938
v 0.164816 0.065519 0.069511
v 0.164816 0.110487 0.066033
v -0.165363 0.065519 0.069511
v -0.165363 0.110487 0.066033
v 0.107754 0.043870 -0.318309
v 0.107754 0.126435 -0.325474
v -0.108302 0.043870 -0.318309
v -0.108302 0.126435 -0.325474
v -0.069251 0.023370 -0.139482
v -0.052108 0.057559 -0.139482
v -0.060009 0.023370 -0.173971
v -0.045163 0.056146 -0.165361
v -0.034762 0.023370 -0.199218
v -0.026191 0.055111 -0.184305
v -0.000274 0.023370 -0.208459
v -0.000274 0.054732 -0.191239
v 0.034215 0.023370 -0.199218
v 0.025644 0.055111 -0.184305
v 0.059462 0.023370 -0.173971
v 0.044616 0.056146 -0.165361
v 0.068703 0.023370 -0.139482
v 0.051561 0.057559 -0.139482
v 0.059462 0.023370 -0.104994
v 0.044616 0.058972 -0.113604
v 0.034215 0.023370 -0.079746
v 0.025644 0.060007 -0.094659
v -0.000273 0.023370 -0.070506
v -0.000273 0.060386 -0.087725
v -0.034762 0.023370 -0.079746
v -0.026191 0.060007 -0.094659
v -0.060009 0.023370 -0.104994
v -0.045163 0.058972 -0.113604
v 0.187779 0.109893 0.009659
v 0.187779 0.451014 -0.007991
v -0.188326 0.109893 0.009659
v -0.188326 0.451014 -0.007991
v 0.139408 0.124797 -0.371133
v 0.139408 0.369303 -0.383784
v -0.139955 0.124797 -0.371133
v -0.139955 0.369303 -0.383784
v 0.171284 0.137075 0.105956
v 0.171284 0.460505 0.077644
v -0.171831 0.137075 0.105956
v -0.171831 0.460505 0.077644
v 0.218867 0.078610 -0.016286
v 0.218867 0.496843 -0.052897
v -0.219414 0.078610 -0.016286
v -0.219414 0.496843 -0.052897
v -0.219414 0.089673 0.110105
v 0.218867 0.089673 0.110105
v 0.218867 0.507907 0.073495
v -0.219414 0.507907 0.073495
v 0.171284 0.134892 0.063773
v 0.171284 0.458323 0.035462
v -0.171831 0.134892 0.063773
v -0.171831 0.458323 0.035462
vn 0.0000 0.0000 1.0000
vn -1.0000 0.0000 0.0000
vn 0.0000 0.0000 -1.0000
vn 1.0000 0.0000 0.0000
vn 0.0000 -1.0000 0.0000
vn 0.0000 1.0000 0.0000
vn 0.0000 0.0771 0.9970
vn -0.9894 -0.0114 -0.1449
vn -0.9894 -0.0125 -0.1447
vn -0.9894 -0.0112 -0.1449
vn 0.0000 -0.0865 -0.9963
vn 0.9894 -0.0125 -0.1447
vn 0.9894 -0.0114 -0.1449
vn 0.9894 -0.0112 -0.1449
vn 0.0000 -0.9984 0.0557
vn 0.0000 0.9992 0.0407
vn -0.8916 0.4528 -0.0001
vn -0.7672 0.4583 -0.4488
vn -0.7656 0.4674 -0.4419
vn -0.4388 0.4722 -0.7645
vn -0.4397 0.4778 -0.7605
vn -0.0000 0.4782 -0.8783
vn -0.0000 0.4813 -0.8766
vn 0.4398 0.4778 -0.7605
vn 0.4388 0.4722 -0.7645
vn 0.7656 0.4674 -0.4419
vn 0.7671 0.4583 -0.4488
vn 0.8916 0.4528 -0.0001
vn 0.8965 0.4430 -0.0059
vn 0.7784 0.4385 0.4492
vn 0.7841 0.4306 0.4469
vn 0.4523 0.4279 0.7825
vn 0.4558 0.4237 0.7827
vn 0.0000 0.4239 0.9057
vn -0.4559 0.4237 0.7827
vn -0.4523 0.4279 0.7825
vn -0.7841 0.4306 0.4469
vn -0.7784 0.4385 0.4492
vn -0.8965 0.4430 -0.0059
vn -0.9920 -0.0065 -0.1263
vn 0.0000 -0.0517 -0.9987
vn 0.9920 -0.0065 -0.1263
vn -0.0000 -0.9992 -0.0391
vn 0.0000 0.9772 -0.2125
vn -0.0000 -0.0872 -0.9962
vn 0.0000 -0.9962 0.0872
vn -0.0000 0.9962 -0.0872
vn -0.0000 0.0872 0.9962
vn 0.0000 -0.9987 0.0517
vn -0.0000 0.9987 -0.0517
vn -0.9894 -0.0126 -0.1447
vn 0.9894 -0.0126 -0.1447
vn 0.0000 0.4218 0.9067
s off
f 83//82 84//82 82//82
f 85//83 88//83 84//83
f 89//84 86//84 88//84
f 87//85 82//85 86//85
f 88//86 82//86 84//86
f 85//87 87//87 89//87
f 83//82 85//82 84//82
f 85//83 89//83 88//83
f 89//84 87//84 86//84
f 87//85 83//85 82//85
f 88//86 86//86 82//86
f 85//87 83//87 87//87
s 1
f 91//88 92//88 90//88
f 93//89 96//90 92//91
f 97//92 94//92 96//92
f 94//93 91//94 90//95
f 92//96 94//96 90//96
f 93//97 95//97 97//97
f 98//98 101//99 100//100
f 100//100 103//101 102//102
f 102//102 105//103 104//104
f 105//103 106//105 104//104
f 107//106 108//107 106//105
f 109//108 110//109 108//107
f 111//110 112//111 110//109
f 113//112 114//113 112//111
f 115//114 116//115 114//113
f 116//115 119//116 118//117
f 118//117 121//118 120//119
f 120//119 99//120 98//98
f 124//121 129//121 128//121
f 129//122 126//122 128//122
f 127//123 122//123 126//123
f 128//124 122//124 124//124
f 129//125 123//125 127//125
f 133//85 144//85 145//85
f 138//83 137//83 136//83
f 137//126 134//126 136//126
f 135//85 139//85 134//85
f 136//127 139//127 138//127
f 137//128 140//128 135//128
f 130//129 138//129 139//129
f 131//129 139//129 140//129
f 131//129 141//129 133//129
f 133//129 138//129 132//129
f 131//83 142//83 130//83
f 133//130 143//130 131//130
f 130//131 144//131 132//131
f 91//88 93//88 92//88
f 93//89 97//132 96//90
f 97//92 95//92 94//92
f 94//93 95//133 91//94
f 92//96 96//96 94//96
f 93//97 91//97 95//97
f 98//98 99//120 101//99
f 100//100 101//99 103//101
f 102//102 103//101 105//103
f 105//103 107//106 106//105
f 107//106 109//108 108//107
f 109//108 111//110 110//109
f 111//110 113//112 112//111
f 113//112 115//114 114//113
f 115//114 117//134 116//115
f 116//115 117//134 119//116
f 118//117 119//116 121//118
f 120//119 121//118 99//120
f 124//121 125//121 129//121
f 129//122 127//122 126//122
f 127//123 123//123 122//123
f 128//124 126//124 122//124
f 129//125 125//125 123//125
f 133//85 132//85 144//85
f 138//83 141//83 137//83
f 137//126 135//126 134//126
f 135//85 140//85 139//85
f 136//127 134//127 139//127
f 137//128 141//128 140//128
f 130//129 132//129 138//129
f 131//129 130//129 139//129
f 131//129 140//129 141//129
f 133//129 141//129 138//129
f 131//83 143//83 142//83
f 133//130 145//130 143//130
f 130//131 142//131 144//131
